<svg width="33" height="33" viewBox="0 0 33 33" fill="none" xmlns="http://www.w3.org/2000/svg">
<path d="M7.6536 25.3V10.8999H18.3019V14.5001H23.2717L26.8206 10.8999H30.7256C31.1962 10.8999 31.6475 11.0895 31.9803 11.427C32.313 11.7645 32.5 12.2223 32.5 12.6996V30.6999C32.5 31.1772 32.313 31.6349 31.9803 31.9725C31.6475 32.31 31.1962 32.4996 30.7256 32.4996H4.10472C3.63399 32.507 3.16651 32.4193 2.7295 32.2417C2.29249 32.0641 1.89467 31.8002 1.55921 31.4652C1.22375 31.1302 0.957337 30.7308 0.775493 30.2904C0.593648 29.85 0.5 29.3773 0.5 28.8998C0.5 28.4223 0.593648 27.9496 0.775493 27.5092C0.957337 27.0687 1.22375 26.6694 1.55921 26.3344C1.89467 25.9994 2.29249 25.7354 2.7295 25.5578C3.16651 25.3802 3.63399 25.2926 4.10472 25.3M4.10472 25.3C3.16342 25.3 2.26066 25.6792 1.59498 26.3541C0.929302 27.0291 0.555214 27.9446 0.554988 28.8993V9.10023C0.554988 8.14539 0.928977 7.22966 1.59468 6.55448C2.26038 5.87931 3.16327 5.5 4.10472 5.5H7.6536V25.3H4.10472Z" stroke="#333333" stroke-linecap="round" stroke-linejoin="round"/>
<path d="M31.9997 3.451L29.5482 1.00034C29.2209 0.679632 28.781 0.5 28.3228 0.5C27.8646 0.5 27.4247 0.679632 27.0975 1.00034L18.5 9.59783V14.5H23.403L31.9997 5.90251C32.3204 5.57528 32.5 5.13536 32.5 4.67717C32.5 4.21899 32.3204 3.77823 31.9997 3.451Z" stroke="#333333" stroke-linecap="round" stroke-linejoin="round"/>
</svg>
