<svg width="21" height="21" viewBox="0 0 21 21" fill="none" xmlns="http://www.w3.org/2000/svg">
<path d="M12.7773 16.3892L14.9443 20.5L17.1443 18.3599L20.5 18.3917L17.3779 12.5101V12.5M8.22267 16.3892L6.05573 20.5L3.85573 18.3599L0.5 18.3917L3.62213 12.5101V12.5" stroke="#333333" stroke-linecap="round" stroke-linejoin="round"/>
<path d="M18.5 8.49986C18.5 9.36922 17.7637 10.1008 17.5216 10.8785C17.28 11.6557 17.4451 12.7193 16.9725 13.3938C16.4999 14.0684 15.4887 14.2171 14.8953 14.7204C14.3019 15.2237 13.7966 16.1611 13.0276 16.424C12.258 16.6869 11.3898 16.1836 10.5549 16.1836C9.71989 16.1836 8.83006 16.6753 8.08265 16.424C7.33523 16.1721 6.86263 15.2001 6.21438 14.7204C5.5656 14.2402 4.55499 14.0684 4.08238 13.3938C3.60978 12.7188 3.78595 11.6787 3.5333 10.8785C3.28011 10.0778 2.5 9.36922 2.5 8.49986C2.5 7.63051 3.23634 6.89945 3.47791 6.12175C3.71949 5.34405 3.55492 4.28095 4.02753 3.60643C4.50013 2.93191 5.51127 2.78318 6.15952 2.27989C6.80777 1.77661 7.20337 0.839195 8.02726 0.576302C8.85168 0.31286 9.66503 0.816144 10.5 0.816144C11.335 0.816144 12.2248 0.324386 12.9727 0.576302C13.7196 0.827669 14.1922 1.79966 14.8953 2.27989C15.5984 2.76013 16.5547 2.93136 17.0273 3.60643C17.4999 4.2815 17.3243 5.32155 17.5769 6.12175C17.8296 6.92196 18.5 7.63105 18.5 8.49986ZM10.5 5.06963C9.62561 5.06963 8.78703 5.43106 8.16874 6.0744C7.55046 6.71775 7.20311 7.59031 7.20311 8.50014C7.20311 9.40996 7.55046 10.2825 8.16874 10.9259C8.78703 11.5692 9.62561 11.9306 10.5 11.9306C11.3743 11.9306 12.2128 11.5692 12.8311 10.926C13.4493 10.2827 13.7966 9.41017 13.7966 8.50041C13.7966 7.59066 13.4493 6.71817 12.8311 6.07487C12.2128 5.43158 11.3743 5.06963 10.5 5.06963Z" stroke="#333333" stroke-linecap="round" stroke-linejoin="round"/>
</svg>
