<svg width="41" height="37" viewBox="0 0 41 37" fill="none" xmlns="http://www.w3.org/2000/svg">
<path d="M12.5 8.5H4.5C3.43913 8.5 2.42172 8.92143 1.67157 9.67157C0.921427 10.4217 0.5 11.4391 0.5 12.5V32.5C0.5 33.5609 0.921427 34.5783 1.67157 35.3284C2.42172 36.0786 3.43913 36.5 4.5 36.5H36.5C37.5609 36.5 38.5783 36.0786 39.3284 35.3284C40.0786 34.5783 40.5 33.5609 40.5 32.5V12.5C40.5 11.4391 40.0786 10.4217 39.3284 9.67157C38.5783 8.92143 37.5609 8.5 36.5 8.5H28.5M12.5 8.5V1.7C12.5 1.38174 12.6264 1.07652 12.8515 0.851472C13.0765 0.626428 13.3817 0.5 13.7 0.5H27.3C27.6183 0.5 27.9235 0.626428 28.1485 0.851472C28.3736 1.07652 28.5 1.38174 28.5 1.7V8.5M12.5 8.5H28.5" stroke="#333333"/>
</svg>
