<svg width="37" height="37" viewBox="0 0 37 37" fill="none" xmlns="http://www.w3.org/2000/svg">
<path d="M16.5526 4.1468L2.00697 18.7322C1.0419 19.7005 0.5 21.0119 0.5 22.379C0.5 23.7461 1.0419 25.0575 2.00697 26.0258L5.64293 29.6726C8.85229 32.891 10.4579 34.5002 12.4271 34.6766C12.7547 34.7066 13.0804 34.7066 13.4044 34.6766C15.3754 34.5002 16.981 32.891 20.1904 29.6726L31.1001 18.734M2.00697 18.7322H31.1001L16.5526 4.1468M16.5526 4.1468L12.9166 0.5M36.5 32.9C36.5 33.8548 36.1207 34.7705 35.4456 35.4456C34.7705 36.1207 33.8548 36.5 32.9 36.5C31.9453 36.5 31.0296 36.1207 30.3545 35.4456C29.6794 34.7705 29.3001 33.8548 29.3001 32.9C29.3001 30.911 32.9 27.5 32.9 27.5C32.9 27.5 36.5 30.911 36.5 32.9Z" stroke="#333333" stroke-linecap="round" stroke-linejoin="round"/>
</svg>
