<svg width="15" height="21" viewBox="0 0 15 21" fill="none" xmlns="http://www.w3.org/2000/svg">
<path d="M14.5 12.8077V10.1154C14.5 9.19733 14.1681 8.31687 13.5774 7.66771C12.9866 7.01854 12.1854 6.65385 11.35 6.65385H9.95C9.67152 6.65385 9.40445 6.53228 9.20754 6.31589C9.01062 6.0995 8.9 5.80602 8.9 5.5V3.96154C8.9 3.04348 8.56813 2.16303 7.97739 1.51386C7.38665 0.864697 6.58543 0.5 5.75 0.5H4M6.1 0.5H1.55C0.9704 0.5 0.5 1.01692 0.5 1.65385V19.3462C0.5 19.9831 0.9704 20.5 1.55 20.5H13.45C14.0296 20.5 14.5 19.9831 14.5 19.3462V9.73077C14.5 7.28262 13.615 4.93473 12.0397 3.20363C10.4644 1.47252 8.32782 0.5 6.1 0.5Z" stroke="#333333" stroke-linecap="round" stroke-linejoin="round"/>
</svg>
