<svg width="144" height="48" viewBox="0 0 144 48" fill="none" xmlns="http://www.w3.org/2000/svg">
<path d="M0 18.0271V29.9764L10.3479 35.9487L20.689 29.9559V18.0293L20.6935 18.0271L20.689 18.0248V18.0089L20.6754 18.018L10.3479 12.0547L0 18.0271Z" fill="#2C2C2C"/>
<path d="M14.5535 26.6641H3.4707V28.9323H14.5535V26.6641Z" fill="white"/>
<path d="M20.6932 26.6641H14.5508V28.9323H20.6932V26.6641Z" fill="#DDDDDF"/>
<path d="M4.53683 32.5892V25.7753C4.53683 23.6363 6.27209 21.9011 8.41108 21.9011V19.6328H3.17587C2.67458 19.6328 2.26855 20.0388 2.26855 20.5401V31.2782L4.53683 32.587V32.5892Z" fill="white"/>
<path d="M12.2824 25.7753V34.9051L14.5507 33.5963V19.6328H8.4082V21.9011C10.5472 21.9011 12.2824 23.6363 12.2824 25.7753Z" fill="white"/>
<path d="M16.8191 32.2263V25.7753C16.8191 23.6363 18.5543 21.9011 20.6932 21.9011V19.6328H14.5508V33.5351L16.8191 32.2263Z" fill="#DDDDDF"/>
<path d="M28.6934 31.3675L35.066 17.8047H38.0846L44.5201 31.3675H41.4805L35.9045 19.1463H37.2461L31.712 31.3675H28.6934ZM32.0683 28.4117V26.0849H41.0403V28.4117H32.0683Z" fill="black"/>
<path d="M46.1338 20.9493H48.8589V31.3677H46.1338V20.9493ZM52.8628 23.1923C52.0802 23.1923 51.4024 23.3426 50.8294 23.643C50.2564 23.9435 49.7952 24.3103 49.4459 24.7436C49.0965 25.1768 48.8519 25.596 48.7122 26.0013L48.6912 24.8484C48.7052 24.6807 48.7611 24.4326 48.8589 24.1042C48.9568 23.7758 49.1035 23.4194 49.2992 23.0351C49.4948 22.6508 49.7533 22.2805 50.0748 21.9241C50.3962 21.5677 50.7875 21.2777 51.2487 21.0541C51.7098 20.8305 52.2479 20.7188 52.8628 20.7188V23.1923Z" fill="black"/>
<path d="M66.9081 27.2591C66.8383 28.1674 66.5483 28.95 66.0382 29.6069C65.5281 30.2637 64.8259 30.7633 63.9315 31.1057C63.0371 31.4481 61.975 31.6193 60.7451 31.6193C59.5153 31.6193 58.31 31.4131 57.2968 31.0009C56.2836 30.5886 55.487 29.9807 54.9071 29.1771C54.3271 28.3736 54.0371 27.3779 54.0371 26.19C54.0371 25.0021 54.3271 24.0029 54.9071 23.1923C55.487 22.3818 56.2836 21.7669 57.2968 21.3476C58.31 20.9284 59.4594 20.7188 60.7451 20.7188C62.0309 20.7188 63.03 20.8899 63.9105 21.2323C64.7909 21.5747 65.4862 22.0673 65.9963 22.7102C66.5064 23.353 66.8033 24.1287 66.8872 25.037H64.3926C64.155 24.3383 63.7148 23.7933 63.072 23.402C62.4291 23.0107 61.6535 22.815 60.7451 22.815C60.0184 22.815 59.3581 22.9408 58.7642 23.1923C58.1702 23.4439 57.6951 23.8177 57.3387 24.3138C56.9824 24.8099 56.8042 25.4353 56.8042 26.19C56.8042 26.9446 56.9789 27.549 57.3282 28.0452C57.6776 28.5413 58.1528 28.9116 58.7537 29.1562C59.3546 29.4007 60.0184 29.523 60.7451 29.523C61.7234 29.523 62.5235 29.3274 63.1454 28.9361C63.7672 28.5448 64.19 27.9858 64.4136 27.2591H66.9081Z" fill="black"/>
<path d="M69.1094 31.3687V16.7578H71.8345V31.3687H69.1094ZM78.4377 31.3687V25.6459C78.4377 25.073 78.3399 24.5978 78.1442 24.2205C77.9486 23.8431 77.6377 23.5567 77.2114 23.361C76.7852 23.1654 76.2157 23.0675 75.503 23.0675C74.7902 23.0675 74.1963 23.1968 73.6373 23.4553C73.0783 23.7139 72.6241 24.0493 72.2747 24.4615C71.9254 24.8738 71.7297 25.3105 71.6878 25.7717L71.6668 24.6188C71.7367 24.1576 71.8974 23.6964 72.149 23.2352C72.4005 22.7741 72.7359 22.3548 73.1552 21.9775C73.5744 21.6002 74.081 21.2962 74.6749 21.0656C75.2689 20.835 75.9362 20.7197 76.6769 20.7197C77.3197 20.7197 77.9136 20.8001 78.4587 20.9608C79.0037 21.1215 79.4789 21.3696 79.8842 21.705C80.2894 22.0404 80.6038 22.4561 80.8274 22.9522C81.0511 23.4484 81.1628 24.0318 81.1628 24.7026V31.3687H78.4377Z" fill="black"/>
<path d="M86.76 16.3828V18.7725H83.5947V16.3828H86.76ZM83.8043 20.9526H86.5294V31.371H83.8043V20.9526Z" fill="black"/>
<path d="M88.5205 21.139H96.9055V23.2143H88.5205V21.139ZM94.8931 16.7578H97.0522V18.9589H95.543C95.1377 18.9449 94.7883 18.9868 94.4948 19.0847C94.2013 19.1825 93.9777 19.3607 93.824 19.6192C93.6703 19.8777 93.5934 20.2446 93.5934 20.7197V31.3687H90.8683V20.3843C90.8683 19.5458 91.022 18.8576 91.3295 18.3195C91.6369 17.7815 92.0911 17.3867 92.692 17.1351C93.293 16.8836 94.0267 16.7578 94.8931 16.7578Z" fill="black"/>
<path d="M98.8135 16.7578H101.539V31.3687H98.8135V16.7578Z" fill="black"/>
<path d="M110.426 31.6193C109.113 31.6193 107.956 31.4096 106.957 30.9904C105.958 30.5711 105.179 29.9597 104.62 29.1562C104.061 28.3526 103.781 27.3639 103.781 26.19C103.781 25.0161 104.061 24.0204 104.62 23.2028C105.179 22.3853 105.958 21.7669 106.957 21.3476C107.956 20.9284 109.113 20.7188 110.426 20.7188C111.74 20.7188 112.889 20.9284 113.875 21.3476C114.86 21.7669 115.632 22.3853 116.191 23.2028C116.75 24.0204 117.03 25.0161 117.03 26.19C117.03 27.3639 116.75 28.3526 116.191 29.1562C115.632 29.9597 114.86 30.5711 113.875 30.9904C112.889 31.4096 111.74 31.6193 110.426 31.6193ZM110.426 29.523C111.153 29.523 111.806 29.3937 112.386 29.1352C112.966 28.8767 113.424 28.4993 113.759 28.0032C114.095 27.5071 114.263 26.9027 114.263 26.19C114.263 25.4772 114.095 24.8658 113.759 24.3558C113.424 23.8457 112.97 23.4579 112.397 23.1923C111.824 22.9268 111.167 22.794 110.426 22.794C109.686 22.794 109.043 22.9268 108.456 23.1923C107.869 23.4579 107.404 23.8422 107.062 24.3453C106.72 24.8484 106.548 25.4633 106.548 26.19C106.548 26.9167 106.716 27.5071 107.051 28.0032C107.387 28.4993 107.848 28.8767 108.435 29.1352C109.022 29.3937 109.686 29.523 110.426 29.523Z" fill="black"/>
<path d="M132.311 29.4849L131.452 29.4639L134.848 20.9531H137.845L133.255 31.3715H130.697L127.343 22.9655H128.265L124.807 31.3715H122.249L117.784 20.9531H120.782L124.052 29.4849H123.193L126.253 20.9531H129.376L132.311 29.4849Z" fill="black"/>
</svg>
