<svg width="29" height="37" viewBox="0 0 29 37" fill="none" xmlns="http://www.w3.org/2000/svg">
<path d="M22.5 8.5C22.5 10.6217 21.6571 12.6566 20.1569 14.1569C18.6566 15.6571 16.6217 16.5 14.5 16.5C12.3783 16.5 10.3434 15.6571 8.84315 14.1569C7.34285 12.6566 6.5 10.6217 6.5 8.5C6.5 6.37827 7.34285 4.34344 8.84315 2.84315C10.3434 1.34285 12.3783 0.5 14.5 0.5C16.6217 0.5 18.6566 1.34285 20.1569 2.84315C21.6571 4.34344 22.5 6.37827 22.5 8.5Z" stroke="#333333"/>
<path d="M18.5 22.5H10.5C7.84784 22.5 5.3043 23.5536 3.42893 25.4289C1.55357 27.3043 0.5 29.8478 0.5 32.5C0.5 33.5609 0.921427 34.5783 1.67157 35.3284C2.42172 36.0786 3.43913 36.5 4.5 36.5H24.5C25.5609 36.5 26.5783 36.0786 27.3284 35.3284C28.0786 34.5783 28.5 33.5609 28.5 32.5C28.5 29.8478 27.4464 27.3043 25.5711 25.4289C23.6957 23.5536 21.1522 22.5 18.5 22.5Z" stroke="#333333" stroke-linejoin="round"/>
</svg>
