<svg width="21" height="21" viewBox="0 0 21 21" fill="none" xmlns="http://www.w3.org/2000/svg">
<path d="M13.8307 9.38927V11.6112M16.0531 9.38927H4.94141M14.9416 4.94437H6.0529V1.61096C6.0529 1.31631 6.16995 1.03374 6.37829 0.825392C6.58664 0.617047 6.86921 0.5 7.16386 0.5H13.8307C14.1253 0.5 14.4079 0.617047 14.6162 0.825392C14.8246 1.03374 14.9416 1.31631 14.9416 1.61096V4.94437Z" stroke="#344054" stroke-linecap="round" stroke-linejoin="round"/>
<path d="M20.5005 19.3905V6.0568C20.5005 5.76211 20.3834 5.47948 20.1751 5.27105C19.9668 5.06262 19.6842 4.94545 19.3895 4.94531H1.61096C0.997612 4.94531 0.5 5.44292 0.5 6.0568V19.3905C0.5 20.0038 0.997612 20.5014 1.61096 20.5014H19.3895C20.0029 20.5014 20.5005 20.0038 20.5005 19.3905Z" stroke="#333333" stroke-linecap="round" stroke-linejoin="round"/>
</svg>
